<svg width="13" height="22" viewBox="0 0 13 22" fill="none" xmlns="http://www.w3.org/2000/svg">
<path fill-rule="evenodd" clip-rule="evenodd" d="M4.93412 1.93414C6.01245 0.855802 7.47499 0.25 8.99999 0.25H12C12.4142 0.25 12.75 0.585786 12.75 1V5C12.75 5.41421 12.4142 5.75 12 5.75H8.99999C8.93368 5.75 8.87009 5.77634 8.82321 5.82322C8.77633 5.87011 8.74999 5.9337 8.74999 6V8.25H12C12.2309 8.25 12.449 8.3564 12.5911 8.53844C12.7333 8.72048 12.7836 8.95785 12.7276 9.1819L11.7276 13.1819C11.6441 13.5158 11.3441 13.75 11 13.75H8.74999V21C8.74999 21.4142 8.4142 21.75 7.99999 21.75H3.99999C3.58577 21.75 3.24999 21.4142 3.24999 21V13.75H0.999985C0.585771 13.75 0.249985 13.4142 0.249985 13V9C0.249985 8.58579 0.585771 8.25 0.999985 8.25H3.24999V6C3.24999 4.47501 3.85579 3.01247 4.93412 1.93414ZM8.99999 1.75C7.87282 1.75 6.79181 2.19777 5.99478 2.9948C5.19775 3.79183 4.74999 4.87283 4.74999 6V9C4.74999 9.41421 4.4142 9.75 3.99999 9.75H1.74998V12.25H3.99999C4.4142 12.25 4.74999 12.5858 4.74999 13V20.25H7.24999V13C7.24999 12.5858 7.58577 12.25 7.99999 12.25H10.4144L11.0394 9.75H7.99999C7.58577 9.75 7.24999 9.41421 7.24999 9V6C7.24999 5.53587 7.43436 5.09075 7.76255 4.76256C8.09074 4.43437 8.53586 4.25 8.99999 4.25H11.25V1.75H8.99999Z" fill="black"/>
</svg>
