<svg width="22" height="22" viewBox="0 0 22 22" fill="none" xmlns="http://www.w3.org/2000/svg">
<path fill-rule="evenodd" clip-rule="evenodd" d="M6.00002 1.75C3.65281 1.75 1.75002 3.65279 1.75002 6V16C1.75002 18.3472 3.65281 20.25 6.00002 20.25H16C18.3472 20.25 20.25 18.3472 20.25 16V6C20.25 3.65279 18.3472 1.75 16 1.75H6.00002ZM0.250016 6C0.250016 2.82436 2.82438 0.25 6.00002 0.25H16C19.1757 0.25 21.75 2.82436 21.75 6V16C21.75 19.1756 19.1757 21.75 16 21.75H6.00002C2.82438 21.75 0.250016 19.1756 0.250016 16V6ZM15.75 5.5C15.75 5.08579 16.0858 4.75 16.5 4.75H16.51C16.9242 4.75 17.26 5.08579 17.26 5.5C17.26 5.91421 16.9242 6.25 16.51 6.25H16.5C16.0858 6.25 15.75 5.91421 15.75 5.5ZM11.52 7.7419C10.8438 7.64163 10.1532 7.75713 9.5464 8.07197C8.93963 8.38682 8.44758 8.88497 8.14024 9.49558C7.83291 10.1062 7.72593 10.7982 7.83453 11.4731C7.94314 12.148 8.26179 12.7715 8.74516 13.2548C9.22853 13.7382 9.85202 14.0569 10.5269 14.1655C11.2018 14.2741 11.8938 14.1671 12.5044 13.8598C13.115 13.5524 13.6132 13.0604 13.928 12.4536C14.2429 11.8468 14.3584 11.1562 14.2581 10.48C14.1558 9.79028 13.8344 9.15171 13.3414 8.65865C12.8483 8.16559 12.2097 7.84418 11.52 7.7419ZM8.85555 6.74054C9.74237 6.28038 10.7517 6.11158 11.74 6.25813C12.7481 6.40762 13.6814 6.87737 14.402 7.59799C15.1226 8.31862 15.5924 9.25191 15.7419 10.26C15.8884 11.2483 15.7196 12.2576 15.2595 13.1445C14.7993 14.0313 14.0712 14.7504 13.1788 15.1996C12.2864 15.6488 11.275 15.8052 10.2886 15.6464C9.30221 15.4877 8.39097 15.022 7.6845 14.3155C6.97803 13.609 6.51231 12.6978 6.35358 11.7114C6.19486 10.725 6.35121 9.71363 6.80039 8.8212C7.24958 7.92877 7.96872 7.2007 8.85555 6.74054Z" fill="black"/>
</svg>
