<svg width="22" height="21" viewBox="0 0 22 21" fill="none" xmlns="http://www.w3.org/2000/svg">
<path fill-rule="evenodd" clip-rule="evenodd" d="M3.00002 1.75C2.30966 1.75 1.75002 2.30964 1.75002 3C1.75002 3.69036 2.30966 4.25 3.00002 4.25C3.69037 4.25 4.25002 3.69036 4.25002 3C4.25002 2.30964 3.69037 1.75 3.00002 1.75ZM0.250015 3C0.250015 1.48122 1.48123 0.25 3.00002 0.25C4.5188 0.25 5.75002 1.48122 5.75002 3C5.75002 4.51878 4.5188 5.75 3.00002 5.75C1.48123 5.75 0.250015 4.51878 0.250015 3ZM15 7.75C13.6076 7.75 12.2722 8.30312 11.2877 9.28769C10.3031 10.2723 9.74998 11.6076 9.74998 13V19.25H12.25V13C12.25 12.2707 12.5397 11.5712 13.0554 11.0555C13.5712 10.5397 14.2706 10.25 15 10.25C15.7293 10.25 16.4288 10.5397 16.9445 11.0555C17.4603 11.5712 17.75 12.2707 17.75 13V19.25H20.25V13C20.25 11.6076 19.6969 10.2723 18.7123 9.28769C17.7277 8.30312 16.3924 7.75 15 7.75ZM10.227 8.22703C11.4929 6.96116 13.2098 6.25 15 6.25C16.7902 6.25 18.5071 6.96116 19.773 8.22703C21.0388 9.4929 21.75 11.2098 21.75 13V20C21.75 20.4142 21.4142 20.75 21 20.75H17C16.5858 20.75 16.25 20.4142 16.25 20V13C16.25 12.6685 16.1183 12.3505 15.8839 12.1161C15.6494 11.8817 15.3315 11.75 15 11.75C14.6685 11.75 14.3505 11.8817 14.1161 12.1161C13.8817 12.3505 13.75 12.6685 13.75 13V20C13.75 20.4142 13.4142 20.75 13 20.75H8.99998C8.58577 20.75 8.24998 20.4142 8.24998 20V13C8.24998 11.2098 8.96114 9.4929 10.227 8.22703ZM0.250015 7.99998C0.250015 7.58577 0.585802 7.24998 1.00002 7.24998H5.00002C5.41423 7.24998 5.75002 7.58577 5.75002 7.99998V20C5.75002 20.4142 5.41423 20.75 5.00002 20.75H1.00002C0.585802 20.75 0.250015 20.4142 0.250015 20V7.99998ZM1.75002 8.74998V19.25H4.25002V8.74998H1.75002Z" fill="black"/>
</svg>
