<svg width="47" height="50" viewBox="0 0 47 50" fill="none" xmlns="http://www.w3.org/2000/svg">
<g clip-path="url(#clip0_277_65709)">
<path d="M14.5793 6.18443V1.71651C14.5793 0.767254 13.7685 0 12.7654 0H1.81393C0.8108 0 0 0.767254 0 1.71651V6.61266C0 6.63407 0.00754233 6.65192 0.00754233 6.67333V6.72686C0.0867367 7.85097 1.203 19.2206 14.6208 20.5803V6.91599C14.6208 6.66619 14.6057 6.42352 14.5793 6.18086V6.18443Z" fill="url(#paint0_linear_277_65709)"/>
<path d="M47 11.234V43.0804C47 43.1411 47 43.2089 47 43.2696C46.9208 42.1454 45.8045 30.7829 32.3867 29.4197V29.2841H29.2039C25.1801 29.2841 21.5333 30.8293 18.8935 33.3238C16.2575 35.8218 14.6246 39.2727 14.6246 43.0804C14.6246 43.3302 14.6095 43.5729 14.5831 43.8156V48.2799C14.5831 49.2292 13.7685 49.9964 12.7692 49.9964H1.81393C0.8108 49.9964 0 49.2292 0 48.2799V43.3837C0 43.3516 0.00754233 43.3159 0.0113135 43.2838C0.00754233 43.216 0 43.1482 0 43.0804V31.6858C6.18094 32.8956 10.6347 32.1604 13.6101 31.2326C22.3592 28.5062 24.7615 22.1255 35.7808 15.9731C39.9517 13.6428 43.8812 12.1726 47 11.234Z" fill="url(#paint1_linear_277_65709)"/>
<path d="M47 6.91599V11.234C43.8812 12.1726 39.9517 13.6429 35.7808 15.9732C24.7615 22.1255 22.3592 28.5062 13.6101 31.2326C10.6347 32.1604 6.18094 32.8956 0 31.6858V6.91599C0 6.85533 0 6.78752 0.00754233 6.72686C0.0829656 7.85097 1.203 19.2206 14.6208 20.5767V20.7123H17.7999C21.8275 20.7123 25.4742 19.1671 28.1102 16.6726C30.7501 14.1746 32.383 10.7237 32.383 6.91599C32.383 6.8018 32.3943 6.69474 32.3981 6.58411V1.71651C32.3981 0.767254 33.2126 0 34.212 0H45.1634C46.1628 0 46.9774 0.767254 46.9774 1.71651V6.45921C46.9887 6.61266 47 6.76254 47 6.91599Z" fill="url(#paint2_linear_277_65709)"/>
<path d="M46.9962 43.2731C46.9171 42.149 45.8008 30.783 32.383 29.4197V43.0804C32.383 43.1946 32.3943 43.3017 32.4018 43.4123V48.2799C32.4018 49.2292 33.2127 49.9964 34.2158 49.9964H45.1635C46.1666 49.9964 46.9774 49.2292 46.9774 48.2799V43.5444C46.9812 43.4801 46.9925 43.4195 46.9962 43.3552V43.2696V43.2731Z" fill="url(#paint3_linear_277_65709)"/>
</g>
<defs>
<linearGradient id="paint0_linear_277_65709" x1="-0.267752" y1="33.1454" x2="10.0261" y2="-0.43684" gradientUnits="userSpaceOnUse">
<stop stop-color="#9080FC"/>
<stop offset="1" stop-color="#97CAF9"/>
</linearGradient>
<linearGradient id="paint1_linear_277_65709" x1="65.7502" y1="29.1664" x2="19.4087" y2="31.2581" gradientUnits="userSpaceOnUse">
<stop stop-color="#9080FC"/>
<stop offset="1" stop-color="#97CAF9"/>
</linearGradient>
<linearGradient id="paint2_linear_277_65709" x1="44.2282" y1="-4.47149" x2="5.74777" y2="23.4231" gradientUnits="userSpaceOnUse">
<stop stop-color="#9080FC"/>
<stop offset="1" stop-color="#97CAF9"/>
</linearGradient>
<linearGradient id="paint3_linear_277_65709" x1="40.0158" y1="59.5782" x2="39.4248" y2="31.1705" gradientUnits="userSpaceOnUse">
<stop stop-color="#9080FC"/>
<stop offset="1" stop-color="#97CAF9"/>
</linearGradient>
<clipPath id="clip0_277_65709">
<rect width="47" height="50" fill="white"/>
</clipPath>
</defs>
</svg>
